<?xml version="1.0" standalone="no"?>
<!DOCTYPE svg PUBLIC "-//W3C//DTD SVG 20010904//EN"
 "http://www.w3.org/TR/2001/REC-SVG-20010904/DTD/svg10.dtd">
<svg version="1.0" xmlns="http://www.w3.org/2000/svg"
 width="280.000000pt" height="280.000000pt" viewBox="0 0 280.000000 280.000000"
 preserveAspectRatio="xMidYMid meet">
<metadata>
Created by potrace 1.11, written by Peter Selinger 2001-2013
</metadata>
<g transform="translate(0.000000,280.000000) scale(0.100000,-0.100000)"
fill="#000000" stroke="none">
<path d="M70 1400 l0 -1330 1330 0 1330 0 0 1330 0 1330 -1330 0 -1330 0 0
-1330z m720 535 l0 -35 -115 0 -115 0 0 -60 0 -59 103 -3 102 -3 3 -32 3 -33
-105 0 -106 0 0 -95 0 -95 -45 0 -45 0 0 225 0 225 160 0 160 0 0 -35z m395 1
c87 -52 130 -155 101 -248 -30 -101 -101 -157 -211 -166 -146 -11 -264 87
-265 221 0 90 46 161 135 204 69 33 171 29 240 -11z m500 10 c87 -41 135 -112
135 -201 0 -193 -241 -295 -403 -171 -81 62 -106 190 -54 279 63 107 205 148
322 93z m516 -3 c35 -19 64 -43 84 -71 27 -40 30 -51 30 -127 0 -76 -2 -87
-30 -126 -19 -27 -50 -54 -84 -71 -50 -26 -61 -28 -177 -28 l-124 0 0 225 0
225 123 0 c115 0 127 -2 178 -27z m-1426 -764 c65 -24 76 -41 46 -73 l-22 -23
-46 24 c-56 28 -104 29 -159 4 -59 -27 -88 -77 -82 -145 5 -64 29 -99 86 -127
34 -17 54 -20 88 -15 76 10 84 18 84 86 l0 60 35 0 35 0 0 -84 0 -84 -46 -22
c-55 -27 -157 -37 -207 -21 -100 33 -161 115 -161 216 0 170 172 271 349 204z
m255 -204 l0 -225 -45 0 -45 0 0 225 0 225 45 0 45 0 0 -225z m211 46 c54
-141 68 -171 76 -155 5 10 36 90 69 176 l59 158 43 0 c23 0 42 -2 42 -4 0 -1
-40 -102 -89 -222 l-89 -219 -44 -3 -44 -3 -87 218 c-48 120 -87 222 -87 226
0 5 19 7 42 5 l42 -3 67 -174z m679 144 l0 -35 -125 0 -125 0 0 -60 0 -60 115
0 115 0 0 -35 0 -35 -115 0 -115 0 0 -60 0 -60 130 0 130 0 0 -35 0 -35 -170
0 -170 0 0 225 0 225 165 0 165 0 0 -35z m388 14 c97 -47 109 -179 22 -252
l-32 -28 46 -69 c25 -38 46 -72 46 -75 0 -3 -20 -5 -44 -5 -44 0 -44 0 -85 70
l-42 70 -59 0 -60 0 0 -70 0 -70 -45 0 -45 0 0 225 0 225 127 0 c109 0 133 -3
171 -21z"/>
<path d="M980 1878 c-117 -60 -113 -217 7 -270 79 -35 150 -13 201 62 59 88
-8 215 -119 227 -33 3 -55 -2 -89 -19z"/>
<path d="M1520 1889 c-88 -35 -127 -146 -77 -219 50 -75 121 -97 200 -62 84
37 115 120 76 199 -37 74 -126 111 -199 82z"/>
<path d="M1980 1745 l0 -155 68 0 c90 1 144 25 171 79 26 51 26 93 0 147 -27
58 -81 84 -172 84 l-67 0 0 -155z"/>
<path d="M2100 1044 l0 -86 81 4 c74 3 83 6 105 31 27 31 30 54 13 91 -15 32
-56 46 -135 46 l-64 0 0 -86z"/>
</g>
</svg>
